<svg width="360" height="74" viewBox="0 0 360 74" fill="none" xmlns="http://www.w3.org/2000/svg">
<g clip-path="url(#clip0_3725_2)">
<path d="M202.836 73.3133H203.843V40.2109H202.836V73.3133Z" fill="#1C4D86"/>
<path d="M216.273 51.6918H214.258L218.959 40.8828H220.974L225.676 51.6918H223.661L222.318 48.6517H218.623L219.295 46.9628H221.646L219.967 42.9095L216.273 51.6918Z" fill="#1C4D86"/>
<path d="M226.68 43.9237C227.687 43.5859 228.695 43.5859 230.038 43.5859C232.724 43.5859 234.068 44.9371 234.068 47.3015C234.068 50.0037 232.724 51.3549 230.374 51.3549C229.702 51.3549 229.366 51.3549 228.695 51.0171V54.3949H226.68V43.9237ZM228.695 49.3282C229.03 49.666 229.702 49.666 230.374 49.666C231.717 49.666 232.053 48.9904 232.053 47.3015C232.053 45.9504 231.381 45.2748 230.038 45.2748C229.366 45.2748 229.03 45.2748 228.695 45.2748V49.3282Z" fill="#1C4D86"/>
<path d="M235.75 43.9237C236.757 43.5859 237.765 43.5859 239.108 43.5859C241.795 43.5859 243.138 44.9371 243.138 47.3015C243.138 50.0037 241.795 51.3549 239.444 51.3549C238.772 51.3549 238.437 51.3549 237.765 51.0171V54.3949H235.75V43.9237ZM237.765 49.3282C238.101 49.666 238.772 49.666 239.444 49.666C240.787 49.666 241.123 48.9904 241.123 47.3015C241.123 45.9504 240.451 45.2748 239.108 45.2748C238.437 45.2748 238.101 45.2748 237.765 45.2748V49.3282Z" fill="#1C4D86"/>
<path d="M244.477 51.6918H246.491V40.8828H244.477V51.6918Z" fill="#1C4D86"/>
<path d="M250.187 42.2358H248.172V40.5469H250.187V42.2358ZM250.187 51.3558H248.172V43.5869H250.187V51.3558Z" fill="#1C4D86"/>
<path d="M255.561 43.5859C257.912 43.5859 259.255 44.9371 259.255 47.3015C259.255 47.6393 259.255 47.9771 259.255 48.3149H253.882C253.882 49.3282 254.554 50.0037 256.233 50.0037C256.904 50.0037 257.912 50.0037 258.583 49.666V51.3549C257.912 51.3549 256.904 51.6926 255.897 51.6926C252.875 51.6926 251.531 50.3415 251.531 47.6393C251.531 44.9371 252.875 43.9237 255.225 43.9237L255.561 43.5859ZM253.882 46.9637H257.24C257.24 45.9504 256.569 45.2748 255.561 45.2748C254.554 45.2748 253.882 45.9504 253.882 46.9637Z" fill="#1C4D86"/>
<path d="M267.654 51.018C266.31 51.3558 265.303 51.3558 263.96 51.3558C261.273 51.3558 260.266 50.0047 260.266 47.3025C260.266 44.6002 261.609 43.5869 263.96 43.5869C264.631 43.5869 264.967 43.5869 265.639 43.9247V40.5469H267.654V51.018ZM265.639 45.6136C265.303 45.2758 264.631 45.2758 263.96 45.2758C262.616 45.2758 261.945 45.9513 261.945 47.3025C261.945 48.9914 262.616 49.6669 263.96 49.6669C264.631 49.6669 264.967 49.6669 265.303 49.3291V45.2758L265.639 45.6136Z" fill="#1C4D86"/>
<path d="M273.023 51.6918H275.038V40.8828H273.023V51.6918Z" fill="#1C4D86"/>
<path d="M277.055 51.6908V43.9219H278.734L279.07 44.9352C279.741 44.2597 280.749 43.9219 281.756 43.9219C283.771 43.9219 284.443 44.9352 284.443 46.9619V52.0286H282.428V46.9619C282.428 45.9486 282.092 45.6108 281.085 45.6108C280.413 45.6108 279.741 45.9486 279.07 46.2863V51.6908H277.055Z" fill="#1C4D86"/>
<path d="M286.125 51.6908V43.9219H287.804L288.14 44.9352C288.812 44.2597 289.819 43.9219 290.826 43.9219C292.841 43.9219 293.513 44.9352 293.513 46.9619V52.0286H291.498V46.9619C291.498 45.9486 291.162 45.6108 290.155 45.6108C289.483 45.6108 288.812 45.9486 288.14 46.2863V51.6908H286.125Z" fill="#1C4D86"/>
<path d="M294.852 47.6393C294.852 44.9371 296.195 43.5859 298.881 43.5859C301.568 43.5859 302.911 44.9371 302.911 47.6393C302.911 50.3415 301.568 51.6926 298.881 51.6926C296.195 51.6926 294.852 50.3415 294.852 47.6393ZM298.881 50.0037C300.225 50.0037 300.896 49.3282 300.896 47.6393C300.896 45.9504 300.225 45.2748 298.881 45.2748C297.538 45.2748 296.866 45.9504 296.866 47.6393C296.866 49.3282 297.538 50.0037 298.881 50.0037Z" fill="#1C4D86"/>
<path d="M303.25 43.5859H305.265L307.28 49.3282L309.295 43.5859H311.31L308.287 51.6926H306.272L303.25 43.5859Z" fill="#1C4D86"/>
<path d="M311.976 48.9923C311.976 47.3034 312.984 46.6278 315.335 46.6278C316.006 46.6278 316.342 46.6278 317.014 46.6278V45.9522C317.014 45.2767 316.342 44.9389 315.335 44.9389C314.327 44.9389 313.656 44.9389 312.312 45.2767V43.5878C313.32 43.25 314.327 43.25 315.335 43.25C317.685 43.25 318.693 44.2633 318.693 45.9522V51.3567H317.685L317.014 50.6811C316.342 51.0189 315.67 51.3567 314.663 51.3567C312.648 51.3567 311.641 50.6811 311.641 48.9923H311.976ZM315.335 47.9789C314.327 47.9789 313.991 48.3167 313.991 48.9923C313.991 49.6678 314.327 50.0056 315.335 50.0056C316.006 50.0056 316.678 49.6678 317.014 49.33V47.9789C316.678 47.9789 316.006 47.9789 315.335 47.9789Z" fill="#1C4D86"/>
<path d="M320.711 42.2344H322.054L322.39 43.5855H324.405V45.2744H322.726V48.99C322.726 49.6655 323.062 50.0033 323.733 50.0033H324.405V51.6922H322.726C321.383 51.6922 320.711 51.0166 320.711 49.6655V42.5722V42.2344Z" fill="#1C4D86"/>
<path d="M327.765 42.2358H325.75V40.5469H327.765V42.2358ZM327.765 51.3558H325.75V43.5869H327.765V51.3558Z" fill="#1C4D86"/>
<path d="M329.445 47.6393C329.445 44.9371 330.789 43.5859 333.475 43.5859C336.162 43.5859 337.505 44.9371 337.505 47.6393C337.505 50.3415 336.162 51.6926 333.475 51.6926C330.789 51.6926 329.445 50.3415 329.445 47.6393ZM333.475 50.0037C334.818 50.0037 335.49 49.3282 335.49 47.6393C335.49 45.9504 334.818 45.2748 333.475 45.2748C332.132 45.2748 331.46 45.9504 331.46 47.6393C331.46 49.3282 332.132 50.0037 333.475 50.0037Z" fill="#1C4D86"/>
<path d="M338.508 51.6908V43.9219H340.187L340.523 44.9352C341.194 44.2597 342.202 43.9219 343.209 43.9219C345.224 43.9219 345.896 44.9352 345.896 46.9619V52.0286H343.881V46.9619C343.881 45.9486 343.545 45.6108 342.538 45.6108C341.866 45.6108 341.194 45.9486 340.523 46.2863V51.6908H338.508Z" fill="#1C4D86"/>
<path d="M350.937 43.9228C350.937 41.8962 352.281 40.8828 354.631 40.8828C355.639 40.8828 356.311 40.8828 357.318 41.2206V42.9095C356.311 42.5717 355.639 42.5717 354.631 42.5717C353.288 42.5717 352.616 42.9095 352.616 43.9228C352.616 44.9362 353.288 45.6117 354.296 45.6117H356.982V44.5984H357.99L358.661 45.6117H360.005V47.3006H358.661V48.314C358.661 50.6784 357.318 52.0295 354.631 52.0295C351.945 52.0295 350.602 51.0162 350.602 48.9895C350.602 47.9762 350.937 46.9628 351.945 46.6251C350.937 46.2873 350.602 45.2739 350.602 44.2606L350.937 43.9228ZM354.631 46.9628C353.624 46.9628 352.952 47.3006 352.952 48.314C352.952 49.3273 353.624 50.0029 354.967 50.0029C356.311 50.0029 356.982 49.3273 356.982 47.9762V46.9628H354.296H354.631Z" fill="#1C4D86"/>
<path d="M222.318 59.7969V61.4858H219.295V70.6058H217.28V61.4858H214.258V59.7969H222.318Z" fill="#1C4D86"/>
<path d="M225.335 62.8359C227.685 62.8359 229.029 64.1871 229.029 66.5515C229.029 66.8893 229.029 67.2271 229.029 67.5649H223.655C223.655 68.5782 224.327 69.2537 226.006 69.2537C226.678 69.2537 227.685 69.2537 228.357 68.916V70.6049C227.685 70.6049 226.678 70.9426 225.67 70.9426C222.648 70.9426 221.305 69.5915 221.305 66.8893C221.305 64.1871 222.648 63.1737 224.999 63.1737L225.335 62.8359ZM223.655 66.2137H227.014C227.014 65.2004 226.342 64.5248 225.335 64.5248C224.327 64.5248 223.655 65.2004 223.655 66.2137Z" fill="#1C4D86"/>
<path d="M236.42 70.2671C235.748 70.2671 235.076 70.6049 234.405 70.6049C231.718 70.6049 230.039 69.2537 230.039 66.5515C230.039 63.8493 231.382 62.8359 234.405 62.8359C235.076 62.8359 235.748 62.8359 236.42 63.1737V64.8626C235.748 64.8626 235.076 64.5248 234.405 64.5248C232.726 64.5248 232.054 65.2004 232.054 66.8893C232.054 68.5782 232.726 69.2537 234.405 69.2537C235.076 69.2537 235.748 69.2537 236.42 68.916V70.6049V70.2671Z" fill="#1C4D86"/>
<path d="M237.766 70.6058V59.7969H239.78V63.8502C240.452 63.1747 241.124 62.8369 242.131 62.8369C244.146 62.8369 244.818 63.8502 244.818 65.8769V70.9436H242.803V65.8769C242.803 64.8636 242.467 64.5258 241.46 64.5258C240.788 64.5258 240.116 64.8636 239.445 65.2013V70.6058H237.43H237.766Z" fill="#1C4D86"/>
<path d="M246.828 70.6049V62.8359H248.507L248.843 63.8493C249.515 63.1737 250.522 62.8359 251.53 62.8359C253.545 62.8359 254.216 63.8493 254.216 65.876V70.9426H252.201V65.876C252.201 64.8626 251.865 64.5248 250.858 64.5248C250.186 64.5248 249.515 64.8626 248.843 65.2004V70.6049H246.828Z" fill="#1C4D86"/>
<path d="M255.227 66.5534C255.227 63.8511 256.57 62.5 259.256 62.5C261.943 62.5 263.286 63.8511 263.286 66.5534C263.286 69.2556 261.943 70.6067 259.256 70.6067C256.57 70.6067 255.227 69.2556 255.227 66.5534ZM259.256 68.9178C260.6 68.9178 261.271 68.2423 261.271 66.5534C261.271 64.8645 260.6 64.1889 259.256 64.1889C257.913 64.1889 257.241 64.8645 257.241 66.5534C257.241 68.2423 257.913 68.9178 259.256 68.9178Z" fill="#1C4D86"/>
<path d="M264.633 70.6058H266.648V59.7969H264.633V70.6058Z" fill="#1C4D86"/>
<path d="M268.32 66.5534C268.32 63.8511 269.664 62.5 272.35 62.5C275.037 62.5 276.38 63.8511 276.38 66.5534C276.38 69.2556 275.037 70.6067 272.35 70.6067C269.664 70.6067 268.32 69.2556 268.32 66.5534ZM272.35 68.9178C273.693 68.9178 274.365 68.2423 274.365 66.5534C274.365 64.8645 273.693 64.1889 272.35 64.1889C271.007 64.1889 270.335 64.8645 270.335 66.5534C270.335 68.2423 271.007 68.9178 272.35 68.9178Z" fill="#1C4D86"/>
<path d="M284.443 69.9311C284.443 72.2956 283.099 73.3089 280.413 73.3089C279.405 73.3089 278.734 73.3089 277.726 72.9712V71.2823C278.398 71.62 279.405 71.62 280.413 71.62C281.756 71.62 282.428 70.9445 282.428 69.9311C281.756 70.2689 281.085 70.2689 280.413 70.2689C278.062 70.2689 277.055 68.9178 277.055 66.5534C277.055 63.8511 278.398 62.5 281.085 62.5C282.092 62.5 283.099 62.5 284.443 62.8378V69.9311ZM282.428 64.5267C282.092 64.5267 281.756 64.1889 281.085 64.1889C279.741 64.1889 279.07 64.8645 279.07 66.5534C279.07 67.9045 279.741 68.9178 280.749 68.9178C281.42 68.9178 281.756 68.9178 282.428 68.58V64.5267Z" fill="#1C4D86"/>
<path d="M285.453 62.8378H287.468L289.483 68.58L291.498 62.8378H293.513L290.155 70.9445C289.483 72.2956 288.811 73.3089 287.468 73.9845L286.461 72.6334C287.468 72.2956 288.14 71.62 288.476 70.6067L285.453 62.5V62.8378Z" fill="#1C4D86"/>
<path d="M306.606 70.268C305.599 70.6058 304.591 70.9436 303.248 70.9436C299.554 70.9436 297.539 68.9169 297.539 65.2013C297.539 61.4858 299.554 59.7969 303.248 59.7969C304.591 59.7969 305.599 60.1347 306.27 60.4724V62.1613C305.263 61.8236 304.255 61.4858 303.248 61.4858C300.561 61.4858 299.218 62.8369 299.218 65.2013C299.218 67.9036 300.561 69.2547 302.912 69.2547C303.248 69.2547 303.584 69.2547 304.255 68.9169V65.8769H306.27V70.268H306.606Z" fill="#1C4D86"/>
<path d="M308.289 70.6049V62.8359H309.968L310.304 63.8493C310.976 63.1737 311.647 62.8359 312.655 62.8359V64.5248C311.983 64.5248 311.311 64.8626 310.64 65.5382V70.9426H308.625L308.289 70.6049Z" fill="#1C4D86"/>
<path d="M312.984 66.5534C312.984 63.8511 314.328 62.5 317.014 62.5C319.701 62.5 321.044 63.8511 321.044 66.5534C321.044 69.2556 319.701 70.6067 317.014 70.6067C314.328 70.6067 312.984 69.2556 312.984 66.5534ZM317.014 68.9178C318.358 68.9178 319.029 68.2423 319.029 66.5534C319.029 64.8645 318.358 64.1889 317.014 64.1889C315.671 64.1889 314.999 64.8645 314.999 66.5534C314.999 68.2423 315.671 68.9178 317.014 68.9178Z" fill="#1C4D86"/>
<path d="M329.443 62.8378V70.6067H327.764L327.428 69.5934C326.42 70.2689 325.413 70.6067 324.405 70.6067C322.726 70.6067 322.055 69.5934 322.055 67.5667V62.5H324.07V67.5667C324.07 68.58 324.405 68.9178 325.077 68.9178C325.749 68.9178 326.42 68.58 327.092 68.2423V62.8378H329.107H329.443Z" fill="#1C4D86"/>
<path d="M331.461 63.1737C332.468 62.8359 333.476 62.8359 334.819 62.8359C337.506 62.8359 338.849 64.1871 338.849 66.5515C338.849 69.2537 337.506 70.6049 335.155 70.6049C334.483 70.6049 334.148 70.6049 333.476 70.2671V73.6449H331.461V63.1737ZM333.476 68.5782C333.812 68.916 334.483 68.916 335.155 68.916C336.498 68.916 336.834 68.2404 336.834 66.5515C336.834 65.2004 336.162 64.5248 334.819 64.5248C334.148 64.5248 333.812 64.5248 333.476 64.5248V68.5782Z" fill="#1C4D86"/>
<path d="M67.5049 17.5786C66.4974 15.8897 65.49 14.5386 64.4825 13.1875C60.4527 20.6186 59.1094 28.7254 59.1094 35.8187C61.1243 34.1298 64.4825 33.1165 68.8482 33.1165H69.184H72.5422C71.8706 27.712 70.1915 22.3075 67.1691 17.2409L67.5049 17.5786Z" fill="#FFCC3F"/>
<path d="M64.4819 13.1853C59.1088 6.76753 51.7207 2.3764 43.9968 0.6875C39.2954 16.5631 45.6759 33.4521 52.7282 45.6122L55.4148 40.8833L55.7506 40.5455C56.4222 39.1944 57.0939 38.181 58.1013 37.1677C58.4371 36.8299 58.773 36.4921 59.4446 35.8166C59.1088 28.3854 60.4521 20.6165 64.8177 13.1853H64.4819Z" fill="#FBB141"/>
<path d="M43.9915 0.687903C35.9318 -1.00099 27.2004 0.0123441 19.4766 4.0657C21.1557 19.9413 33.581 38.1814 49.3646 52.0304L53.0587 45.6126C45.6706 33.1147 39.29 16.5635 44.3273 0.687903H43.9915Z" fill="#F79741"/>
<path d="M19.4788 4.40028C18.8071 4.73806 18.1355 5.07584 17.4639 5.41362C11.0833 9.46697 6.38176 15.2092 3.35938 21.627C13.7698 38.8538 32.24 50.3383 46.6803 57.0939L49.3668 52.0272C33.9191 38.1782 21.1579 19.9381 19.4788 4.0625V4.40028Z" fill="#F47E40"/>
<path d="M3.36053 21.6328C0.00231687 29.064 -0.669325 37.1707 1.00978 45.2774C12.4277 56.0863 29.2187 61.153 43.3232 63.1797L46.6814 57.0997C32.2411 50.3441 13.771 38.8596 3.36053 21.6328Z" fill="#F1623F"/>
<path d="M5.37348 56.0805C12.4257 67.565 24.8511 73.9829 37.6123 73.6451L43.3212 63.5117C29.5526 61.1472 12.7615 56.0805 1.00781 45.6094C2.01528 49.3249 3.35856 53.0405 5.37348 56.4183V56.0805Z" fill="#ED323E"/>
<path d="M144.404 40.8847H137.351H113.172V48.9914H126.605V73.3115H137.351V48.9914H150.784V46.6269C150.784 45.6136 150.784 43.9247 149.105 42.2358C147.426 40.5469 145.747 40.5469 144.404 40.5469V40.8847ZM182.016 57.0981V65.2048H165.896V51.6936C165.896 51.6936 165.896 50.6803 166.568 49.6669C167.575 48.6536 168.583 48.9914 168.583 48.9914H188.396L193.098 40.8847H161.195C159.516 40.8847 158.508 41.2224 156.829 42.5736C155.15 43.9247 155.486 46.9647 155.486 46.9647V73.3115H193.433V57.0981H182.687H182.016ZM99.7394 42.5736C98.3961 44.2624 98.0603 46.2891 98.0603 46.9647V73.6493H108.807V40.8847H103.433C101.754 40.8847 100.411 41.2224 99.4036 42.5736H99.7394ZM68.8439 40.8847C68.1722 40.8847 65.4857 40.8847 64.1424 42.5736C63.8066 43.2491 63.1349 44.2624 62.4633 44.938L61.7916 46.2891L46.6797 73.6493H57.426L70.8588 49.3291L79.926 65.5426H67.1648L62.4633 73.6493H95.0379L77.2394 40.8847H68.508H68.8439Z" fill="#1C4D86"/>
</g>
<defs>
<clipPath id="clip0_3725_2">
<rect width="360" height="74" fill="white"/>
</clipPath>
</defs>
</svg>
